<?xml version="1.0" encoding="UTF-8" standalone="no"?>
<!-- Created with Inkscape (http://www.inkscape.org/) -->

<svg
   width="79.437027mm"
   height="79.437027mm"
   viewBox="0 0 79.437029 79.437028"
   version="1.1"
   id="svg1"
   xml:space="preserve"
   xmlns="http://www.w3.org/2000/svg"
   xmlns:svg="http://www.w3.org/2000/svg"><defs
     id="defs1"><style
       id="style1">
      .cls-1 {
        opacity: .5;
      }

      .cls-1, .cls-2, .cls-3, .cls-4, .cls-5, .cls-6, .cls-7, .cls-8, .cls-9, .cls-10 {
        stroke-width: 0px;
      }

      .cls-1, .cls-7 {
        fill: #fff;
      }

      .cls-11 {
        opacity: .8;
      }

      .cls-2 {
        fill: #343844;
      }

      .cls-3 {
        fill: #57ce51;
      }

      .cls-4 {
        fill: #61dafb;
      }

      .cls-5 {
        fill: #1d212d;
      }

      .cls-6 {
        fill: #f44642;
      }

      .cls-8 {
        fill: #ffb640;
      }

      .cls-9 {
        fill: #eae9f2;
      }

      .cls-10 {
        fill: #ffde3e;
      }
    </style></defs><g
     id="g42"
     transform="matrix(0.5204205,0,0,0.5204205,-20.545512,3.5825252)"><g
       id="g38"
       transform="rotate(67.645971,94.483906,149.06858)"><path
         id="path30"
         style="fill:#52d593;fill-opacity:1;stroke:#461e15;stroke-width:5.41465;stroke-linejoin:bevel;stroke-dasharray:none;stroke-opacity:1"
         d="m -2.5005844,111.06217 c -13.6238616,10.11921 -16.3704556,29.30834 -6.1346768,42.86005 10.2357206,13.55171 29.5777232,16.33431 43.2015722,6.21512 l 25.411154,-19.00455 c 13.59151,-10.16485 16.37048,-29.30828 6.13475,-42.860057 -10.23569,-13.55177 -29.577752,-16.33441 -43.201621,-6.21519 z" /><path
         id="path31"
         style="fill:#1b8962;fill-opacity:1;stroke:none;stroke-width:5.41465;stroke-linejoin:bevel;stroke-dasharray:none;stroke-opacity:1"
         d="m 22.788092,144.33348 c -13.6238756,10.11922 -41.659132,-3.96297 -31.4233532,9.58874 10.2357206,13.55171 29.5777232,16.33431 43.2015722,6.21512 l 25.411154,-19.00455 c 13.59151,-10.16485 16.37048,-29.30828 6.13475,-42.860057 -10.23569,-13.55177 -4.28908,16.936967 -17.91295,27.056187 z" /><path
         id="path32"
         style="fill:#1b8962;fill-opacity:1;stroke:none;stroke-width:5.41465;stroke-linejoin:bevel;stroke-dasharray:none;stroke-opacity:1"
         d="M 22.910579,92.057563 C 9.2867034,102.1768 6.5401094,121.36596 16.775895,134.91767 c 10.235729,13.55171 29.57772,16.33431 43.20157,6.21512 v 0 c 0,0 20.66345,-15.45382 6.13475,-42.860057 -10.23569,-13.55177 -29.577752,-16.33441 -43.201621,-6.21519 z" /><path
         id="path33"
         style="fill:#52d593;fill-opacity:1;stroke:none;stroke-width:5.41465;stroke-linejoin:bevel;stroke-dasharray:none;stroke-opacity:1"
         d="m 55.323565,120.35031 c -3.75175,10.53688 -10.17655,18.34883 -24.115819,25.15502 16.170329,5.19034 33.588739,-3.66711 38.905149,-19.78366 v 0 c 0,0 8.00247,-24.53081 -19.65278,-38.579617 10.64462,20.550267 4.86345,33.208257 4.86345,33.208257 z" /><path
         id="path34"
         style="fill:none;fill-opacity:1;stroke:#174542;stroke-width:5.41465;stroke-linejoin:bevel;stroke-dasharray:none;stroke-opacity:1"
         d="m -2.5005844,111.06217 c -13.6238616,10.11921 -16.3704556,29.30834 -6.1346768,42.86005 10.2357206,13.55171 29.5777232,16.33431 43.2015722,6.21512 l 25.411154,-19.00455 c 13.59151,-10.16485 16.37048,-29.30828 6.13475,-42.860057 -10.23569,-13.55177 -29.577752,-16.33441 -43.201621,-6.21519 z" /><path
         id="path35"
         style="fill:none;fill-opacity:1;stroke:#174542;stroke-width:5.41465;stroke-linejoin:bevel;stroke-dasharray:none;stroke-opacity:1"
         d="M 22.910579,92.057563 C 9.2867034,102.1768 6.5401094,121.36596 16.775895,134.91767 c 10.235729,13.55171 29.57772,16.33431 43.20157,6.21512 v 0 c 0,0 20.66345,-15.45382 6.13475,-42.860057 -10.23569,-13.55177 -29.577752,-16.33441 -43.201621,-6.21519 z" /><path
         style="opacity:1;fill:#ffffff;fill-opacity:1;stroke:none;stroke-width:5.29167;stroke-linejoin:bevel;stroke-dasharray:none;stroke-opacity:1"
         d="m 0.9749224,122.61108 c 0.303137,-0.26916 2.054294,-1.52594 2.273043,-1.66266 0.21876,-0.13672 0.847929,-0.40361 1.282117,0.36107 0.43419,0.76466 0.31966,1.29207 -0.06053,1.57634 -0.380204,0.28427 -1.864207,1.3838 -2.27384,1.58832 -0.409633,0.20451 -0.945948,0.0586 -1.33749998,-0.46057 -0.39155198,-0.51918 -0.43034198,-0.94202 0.11671398,-1.4025 z"
         id="path36" /><path
         style="opacity:1;fill:#ffffff;fill-opacity:1;stroke:none;stroke-width:5.29167;stroke-linejoin:bevel;stroke-dasharray:none;stroke-opacity:1"
         d="m -0.97561952,127.54836 c 0.68729298,0.36077 0.96329996,0.45491 0.61193698,1.64763 -0.35137298,1.19272 -0.76895896,2.62477 -0.91116166,3.71013 -0.142164,1.08537 -0.09735,4.17874 -0.108223,4.68035 -0.01085,0.5016 -0.200805,1.28415 -0.9723062,1.36915 -0.7715626,0.085 -1.3039198,-0.54027 -1.3911488,-1.5221 -0.08723,-0.98183 -0.114409,-3.16948 0.07487,-4.39286 0.1893116,-1.22335 0.6570432,-3.98532 1.4262198,-5.10275 0.5496606,-0.79849 1.26981588,-0.38955 1.26981588,-0.38955 z"
         id="path37" /><path
         style="opacity:1;fill:#ffffff;fill-opacity:1;stroke:none;stroke-width:5.29167;stroke-linejoin:bevel;stroke-dasharray:none;stroke-opacity:1"
         d="m 1.5815454,145.32323 c -0.183987,-0.36124 -1.35558396,-2.17048 -1.50933796,-2.37762 -0.15376298,-0.20713 -0.64211496,-0.68526 -1.32544764,-0.13182 -0.6833406,0.55343 -0.7692176,1.08625 -0.5190156,1.48968 0.2502026,0.40343 1.23048228,1.96877 1.53721426,2.30869 0.30672098,0.33993 0.85928396,0.39986 1.41332694,0.0594 0.554044,-0.34045 0.744494,-0.71995 0.40326,-1.34834 z"
         id="path38" /></g><g
       id="g41"
       style="display:inline"
       transform="rotate(-7.2483536,-1.0260236,-156.95222)"><path
         id="path39"
         style="fill:#ffffff;fill-opacity:1;stroke:none;stroke-width:5.41465;stroke-linejoin:bevel;stroke-dasharray:none;stroke-opacity:1"
         d="m 86.064489,58.89138 c -13.623868,10.11921 -16.370462,29.30834 -6.134682,42.86006 10.235726,13.55174 29.577623,16.33434 43.201483,6.21514 L 148.54244,88.962 C 162.13396,78.79715 164.91292,59.65372 154.67719,46.102 144.4415,32.550236 125.09944,29.767592 111.47557,39.88681 Z" /><path
         id="path40"
         style="fill:#bbd0d1;fill-opacity:1;stroke:none;stroke-width:5.41465;stroke-linejoin:bevel;stroke-dasharray:none;stroke-opacity:1"
         d="m 111.64074,94.11323 c -13.623783,10.11924 -41.946713,-5.91351 -31.710933,7.63821 10.235726,13.55174 29.577623,16.33434 43.201483,6.21514 L 148.54244,88.962 c 13.59152,-10.16485 16.37048,-29.30828 6.13475,-42.86 -10.23569,-13.551764 -4.00141,18.88745 -17.62528,29.00667 z" /><path
         id="path41"
         style="fill:none;fill-opacity:1;stroke:#174542;stroke-width:5.41465;stroke-linejoin:bevel;stroke-dasharray:none;stroke-opacity:1"
         d="m 86.064489,58.89138 c -13.623868,10.11921 -16.370462,29.30834 -6.134682,42.86006 10.235726,13.55174 29.577623,16.33434 43.201483,6.21514 L 148.54244,88.962 C 162.13396,78.79715 164.91292,59.65372 154.67719,46.102 144.4415,32.550236 125.09944,29.767592 111.47557,39.88681 Z" /></g><text
       xml:space="preserve"
       style="font-style:normal;font-variant:normal;font-weight:bold;font-stretch:normal;font-size:25.4px;line-height:1.3;font-family:Ubuntu;-inkscape-font-specification:'Ubuntu Bold';text-align:start;letter-spacing:0px;word-spacing:0px;writing-mode:lr-tb;direction:ltr;text-anchor:start;display:none;opacity:1;fill:#ffffff;fill-opacity:1;stroke:none;stroke-width:5.29167;stroke-linejoin:bevel;stroke-dasharray:none;stroke-opacity:1"
       x="56.223534"
       y="148.77669"
       id="text54"><tspan
         id="tspan54"
         style="font-style:normal;font-variant:normal;font-weight:bold;font-stretch:normal;font-size:25.4px;font-family:Ubuntu;-inkscape-font-specification:'Ubuntu Bold';writing-mode:lr-tb;stroke-width:5.29167"
         x="0"
         y="0">doxdotfun</tspan></text><circle
       style="display:none;opacity:1;fill:#ffffff;fill-opacity:1;stroke:none;stroke-width:10.1681;stroke-linejoin:bevel;stroke-dasharray:none;stroke-opacity:1"
       id="path58"
       cx="113.61574"
       cy="-170.09315"
       r="10.184854"
       transform="scale(1,-1)" /><rect
       style="display:inline;opacity:1;fill:none;fill-opacity:1;stroke:none;stroke-width:1.01681;stroke-linejoin:bevel;stroke-dasharray:none;stroke-opacity:1"
       id="rect58"
       width="152.64008"
       height="152.64008"
       x="39.478676"
       y="-6.8839049" /><rect
       style="display:none;opacity:1;fill:none;fill-opacity:1;stroke:none;stroke-width:1.16761;stroke-linejoin:bevel;stroke-dasharray:none;stroke-opacity:1"
       id="rect59"
       width="175.27832"
       height="175.27832"
       x="28.15955"
       y="8.8059721" /></g></svg>
